<?xml version="1.0" standalone="no"?><!DOCTYPE svg PUBLIC "-//W3C//DTD SVG 1.1//EN" "http://www.w3.org/Graphics/SVG/1.1/DTD/svg11.dtd"><svg t="1555944524984" class="icon" style="" viewBox="0 0 1024 1024" version="1.1" xmlns="http://www.w3.org/2000/svg" p-id="1689" xmlns:xlink="http://www.w3.org/1999/xlink" width="200" height="200"><defs><style type="text/css"></style></defs><path d="M512 1012.62222187C235.52 1012.62222187 11.37777813 788.48 11.37777813 512S235.52 11.37777813 512 11.37777813s500.62222187 224.14222187 500.62222187 500.62222187-224.14222187 500.62222187-500.62222187 500.62222187z m0-91.02222187c226.21297813 0 409.6-183.38702187 409.6-409.6S738.21297813 102.4 512 102.4 102.4 285.78702187 102.4 512s183.38702187 409.6 409.6 409.6z m0-91.02222187a45.51111147 45.51111147 0 1 1 0-91.02222293 45.51111147 45.51111147 0 0 1 0 91.02222293z m45.4656-202.9340448a45.51111147 45.51111147 0 1 1-90.9312-3.73191146 180.224 180.224 0 0 1 17.11217813-67.8115552c13.5395552-28.8768 34.3836448-51.97368853 63.80657707-65.24017814C594.69368853 469.53813333 625.77777813 427.87271147 625.77777813 398.22222187a113.77777813 113.77777813 0 0 0-227.55555626 0 45.51111147 45.51111147 0 1 1-91.02222187 0 204.8 204.8 0 0 1 409.6 0c0 68.08462187-53.97617813 140.44728853-131.93671147 175.60462293-7.62311147 3.43608853-13.83537813 10.33102187-18.81884373 20.9351104a97.62133333 97.62133333 0 0 0-7.28177813 23.5064896 81.96551147 81.96551147 0 0 0-1.29706667 9.37528853z" p-id="1690"></path></svg>