<?xml version="1.0" standalone="no"?><!DOCTYPE svg PUBLIC "-//W3C//DTD SVG 1.1//EN" "http://www.w3.org/Graphics/SVG/1.1/DTD/svg11.dtd"><svg t="1552876143408" class="icon" style="" viewBox="0 0 1024 1024" version="1.1" xmlns="http://www.w3.org/2000/svg" p-id="4946" xmlns:xlink="http://www.w3.org/1999/xlink" width="200" height="200"><defs><style type="text/css"></style></defs><path d="M863.92416068 184.3484319H160.07583932a50.27488011 50.27488011 0 0 1 0-100.5497602h703.84832136a50.27488011 50.27488011 0 0 1 0 100.5497602z m-50.27488007 804.39808157a50.22460522 50.22460522 0 0 1-35.69516489-14.57971521L512 708.21268254l-265.95411572 265.95411572A50.27488011 50.27488011 0 0 1 160.07583932 938.47163339V335.1730722a50.27488011 50.27488011 0 0 1 50.27488007-50.27488013h603.29856122a50.27488011 50.27488011 0 0 1 50.27488007 50.27488013v603.29856119a50.27488011 50.27488011 0 0 1-50.27488007 50.27488008z m-301.64928061-402.19904078a50.22460522 50.22460522 0 0 1 35.69516487 14.57971522L763.37440051 816.80642355V385.44795228H260.62559949v431.86122007l215.67923564-215.67923564A50.27488011 50.27488011 0 0 1 512 586.54747269z" p-id="4947"></path></svg>