<?xml version="1.0" standalone="no"?><!DOCTYPE svg PUBLIC "-//W3C//DTD SVG 1.1//EN" "http://www.w3.org/Graphics/SVG/1.1/DTD/svg11.dtd"><svg t="1552876192109" class="icon" style="" viewBox="0 0 1024 1024" version="1.1" xmlns="http://www.w3.org/2000/svg" p-id="5186" xmlns:xlink="http://www.w3.org/1999/xlink" width="200" height="200"><defs><style type="text/css"></style></defs><path d="M990.18635001 578.93861562c0 10.3648125-3.782715 19.33089375-11.35486126 26.90304001-7.57310531 7.57310531-16.5372675 11.3606175-26.89728375 11.3606175L818.04354219 617.20227312c0 68.14739625-13.34551219 125.92518281-40.04900719 173.34295313l124.32690656 124.934175c7.57214625 7.56159281 11.3606175 16.53247125 11.3606175 26.89728375 0 10.36001625-3.782715 19.32609657-11.3606175 26.89824281-7.17497531 7.56159281-16.13434125 11.350065-26.89728375 11.350065-10.75814625 0-19.72518656-3.78847125-26.89728375-11.350065L730.17287844 851.51860625c-1.99161001 1.98585375-4.97710594 4.578975-8.96128407 7.765935-3.9928125 3.186-12.3564225 8.872065-25.11097499 17.03612906-12.74879625 8.17078031-25.70193375 15.44360906-38.84982 21.82136531-13.1526825 6.37295906-29.49616125 12.15591844-49.02180283 17.33736563-19.52564156 5.17281281-38.85653531 7.76785313-57.97733155 7.76785312L550.251665 387.6750125l-76.51100531 0 0 535.57224188c-20.31422719 0-40.54690875-2.69481281-60.66351-8.07676407-20.13099094-5.376195-37.46260031-11.95253625-52.00921781-19.72422656-14.54853562-7.77169125-27.69546281-15.53666625-39.44749501-23.31315376-11.75778844-7.77265031-20.419755-14.24346281-26.0060475-19.4201128l-8.96128406-8.3741625L177.26614999 968.07478156c-7.96931719 8.36360906-17.53115344 12.55021125-28.69318593 12.55021125-9.56375531 0-18.12691031-3.19175625-25.69617844-9.56471531-7.57406437-7.17401625-11.659935-16.040325-12.26336531-26.59892625-0.59383781-10.55956031 2.49334969-19.82208094 9.27499125-27.79427531l120.73797938-135.68176782c-23.10977156-45.43575469-34.66897406-100.03041937-34.66897407-163.79071031L72.06771406 617.19459781c-10.36673156 0-19.32801562-3.78847125-26.89728375-11.35486124-7.57406437-7.5769425-11.36253657-16.5382275-11.36253656-26.90304 0-10.36001625 3.78847125-19.33089375 11.36253656-26.89632469 7.56926812-7.56830906 16.53055219-11.35102406 26.89728375-11.35102407l133.88874375 0L205.95645781 364.95953375l-103.40828906-103.40828906c-7.57022719-7.57310531-11.35678031-16.5382275-11.35678031-26.89824281 0-10.35905625 3.79134938-19.33089375 11.35678031-26.89728376 7.56734906-7.57214625 16.53630844-11.36541469 26.89824281-11.36541469 10.36577156 0 19.32417844 3.79902469 26.89920188 11.3654147l103.40828906 103.40828906 504.49507219 0 103.40924812-103.40828907c7.56639001-7.57214625 16.53055219-11.36541469 26.89728375-11.36541469 10.36001625 0 19.32897469 3.79902469 26.89632469 11.36541469 7.57310531 7.56639001 11.36157655 16.5382275 11.36157656 26.89728375 0 10.36001625-3.78847125 19.32609657-11.36157656 26.89824282l-103.40828906 103.40828906 0 175.73269312 133.88970281 0c10.3648125 0 19.32993469 3.782715 26.89728375 11.35678032 7.57214625 7.56543094 11.3606175 16.53630844 11.3606175 26.89056843l0 0L990.18635001 578.93861562 990.18635001 578.93861562zM703.26983938 234.64820469L320.72056719 234.64820469c0-52.99351031 18.62960906-98.12611031 55.89074625-135.38820656 37.25058375-37.26209625 82.3899-55.88594906 135.38532843-55.88594907 52.99638844 0 98.13570375 18.62385281 135.38724751 55.88594907C684.64694563 136.52113438 703.26983938 181.65469437 703.26983938 234.64820469L703.26983938 234.64820469 703.26983938 234.64820469 703.26983938 234.64820469z" p-id="5187"></path></svg>