<?xml version="1.0" standalone="no"?><!DOCTYPE svg PUBLIC "-//W3C//DTD SVG 1.1//EN" "http://www.w3.org/Graphics/SVG/1.1/DTD/svg11.dtd"><svg t="1552876171078" class="icon" style="" viewBox="0 0 1024 1024" version="1.1" xmlns="http://www.w3.org/2000/svg" p-id="5066" xmlns:xlink="http://www.w3.org/1999/xlink" width="200" height="200"><defs><style type="text/css"></style></defs><path d="M891.88743395 61.93952995L132.11256605 61.93952995c-38.92547129 0-70.60411733 31.65534435-70.60411734 70.5924665L61.50844871 891.46800355c0 38.91382045 31.67864605 70.59246649 70.60411734 70.5924665l759.7748679 0c38.92547129 0 70.60411733-31.67864605 70.60411734-70.5924665L962.49155129 132.53199645C962.49155129 93.59487431 930.81290525 61.93952995 891.88743395 61.93952995zM844.02576498 142.29540409c16.71896178 0 30.25724302 13.54993209 30.25724302 30.26889386 0 16.70731093-13.53828125 30.25724302-30.25724302 30.25724303s-30.25724302-13.54993209-30.25724303-30.25724303C813.76852195 155.84533618 827.3068032 142.29540409 844.02576498 142.29540409zM735.60300658 142.29540409c16.71896178 0 30.25724302 13.54993209 30.25724302 30.26889386 0 16.70731093-13.53828125 30.25724302-30.25724302 30.25724303s-30.25724302-13.54993209-30.25724303-30.25724303C705.34576355 155.84533618 718.8840448 142.29540409 735.60300658 142.29540409zM881.80945351 881.37837227L142.19054649 881.37837227 142.19054649 277.92288427l739.60725618 0L881.79780267 881.37837227zM758.85809209 638.26020125l-0.01165084-180.19196018 90.09598008 90.09598008L758.85809209 638.26020125zM265.15355875 638.26020125l-90.09598008-90.0959801 90.08432924-90.08432924L265.15355875 638.26020125z" p-id="5067"></path></svg>