<?xml version="1.0" standalone="no"?><!DOCTYPE svg PUBLIC "-//W3C//DTD SVG 1.1//EN" "http://www.w3.org/Graphics/SVG/1.1/DTD/svg11.dtd"><svg t="1555998828723" class="icon" style="" viewBox="0 0 1024 1024" version="1.1" xmlns="http://www.w3.org/2000/svg" p-id="1746" xmlns:xlink="http://www.w3.org/1999/xlink" width="200" height="200"><defs><style type="text/css"></style></defs><path d="M1021.72444445 402.77333333V147.91111111l-83.12149334 83.12149334a509.39676445 509.39676445 0 0 0-425.07377778-228.79345778C232.01564445 2.23914667 3.76832 230.45006222 3.76832 512S232.01564445 1021.76085333 513.52917333 1021.76085333a509.79726222 509.79726222 0 0 0 472.44174222-317.99523555 43.65425778 43.65425778 0 1 0-80.93696-32.87722667 422.52515555 422.52515555 0 0 1-391.50478222 263.49112889C280.25742222 934.37952 91.14965333 745.27175111 91.14965333 512S280.25742222 89.62048 513.52917333 89.62048c150.69639111 0 286.64718222 79.73546667 361.83153778 204.61795555L766.86222222 402.77333333h254.86222223z" p-id="1747"></path></svg>