<?xml version="1.0" standalone="no"?><!DOCTYPE svg PUBLIC "-//W3C//DTD SVG 1.1//EN" "http://www.w3.org/Graphics/SVG/1.1/DTD/svg11.dtd"><svg t="1552137857455" class="icon" style="" viewBox="0 0 1157 1024" version="1.1" xmlns="http://www.w3.org/2000/svg" p-id="1239" xmlns:xlink="http://www.w3.org/1999/xlink" width="225.9765625" height="200"><defs><style type="text/css"></style></defs><path d="M1050.1566425 738.60320187L855.33189125 738.60320187 855.33189125 924.28905219 855.33189125 989.92297719 855.33189125 991.16919125 789.69796625 991.16919125 789.69796625 989.92297719 98.46473375 989.92297719 98.46473375 991.16919125 32.83080875 991.16919125 32.83080875 989.92297719 32.83080875 924.28905219 32.83080875 350.19991344 32.83080875 284.56598844 98.46473375 284.56598844 284.56598844 284.56598844 284.56598844 32.83080875 289.13543938 32.83080875 350.19991344 32.83080875 1050.1566425 32.83080875 1111.63652094 32.83080875 1115.79056656 32.83080875 1115.79056656 672.96927781 1115.79056656 738.60320187 1050.1566425 738.60320187ZM98.46473375 924.28905219L789.69796625 924.28905219 789.69796625 738.60320187 789.69796625 672.96927781 789.69796625 350.19991344 98.46473375 350.19991344 98.46473375 924.28905219ZM1050.1566425 98.46473375L350.19991344 98.46473375 350.19991344 284.56598844 789.69796625 284.56598844 855.33189125 284.56598844 855.33189125 350.19991344 855.33189125 672.96927781 1050.1566425 672.96927781 1050.1566425 98.46473375Z" fill="#2c2c2c" p-id="1240"></path></svg>