<?xml version="1.0" standalone="no"?><!DOCTYPE svg PUBLIC "-//W3C//DTD SVG 1.1//EN" "http://www.w3.org/Graphics/SVG/1.1/DTD/svg11.dtd"><svg t="1553350488727" class="icon" style="" viewBox="0 0 1024 1024" version="1.1" xmlns="http://www.w3.org/2000/svg" p-id="1701" xmlns:xlink="http://www.w3.org/1999/xlink" width="200" height="200"><defs><style type="text/css"></style></defs><path d="M737.95577083 554.36670718a42.64915156 42.64915156 0 0 1-29.93913978-12.4275674l-451.91154165-451.91154165a42.36670718 42.36670718 0 0 1 59.87827955-59.87827955l451.91154165 451.91154164a42.08426279 42.08426279 0 0 1 0 59.87827956 42.64915156 42.64915156 0 0 1-29.93913977 12.4275674z" p-id="1702"></path><path d="M286.04422917 1006.27824882a42.64915156 42.64915156 0 0 1-29.93913977-12.4275674 42.08426279 42.08426279 0 0 1 0-59.87827955l451.91154165-451.91154165a42.36670718 42.36670718 0 0 1 59.87827955 59.87827956l-451.91154165 451.91154164a42.64915156 42.64915156 0 0 1-29.93913978 12.4275674z" p-id="1703"></path></svg>