<?xml version="1.0" standalone="no"?><!DOCTYPE svg PUBLIC "-//W3C//DTD SVG 1.1//EN" "http://www.w3.org/Graphics/SVG/1.1/DTD/svg11.dtd"><svg t="1555944631290" class="icon" style="" viewBox="0 0 1025 1024" version="1.1" xmlns="http://www.w3.org/2000/svg" p-id="1804" xmlns:xlink="http://www.w3.org/1999/xlink" width="200.1953125" height="200"><defs><style type="text/css"></style></defs><path d="M763.61272889 290.06165333L450.04344889 598.21169778c-1.96721778 1.92853333-5.00849778 2.22435555-7.32615111 0.71566222L267.07854222 484.59320889c-0.36636445-0.24917333-0.73955555-0.49152-1.09795555-0.72362667l-0.72362667-0.45056c-0.45056-0.27989333-1.00352-0.48355555-1.48593778-0.75548444-4.99256889-2.72952889-10.64618667-4.41799111-16.74467555-4.41799111-19.41276445 0-35.12433778 15.72636445-35.12433778 35.12433778 0 7.62197333 2.49628445 14.62272 6.61162666 20.3776 1.54624 2.39502222 3.31320889 4.66716445 5.46816 6.71971555l199.25674667 188.65948445c17.25326222 13.81376 42.26616889 11.69749333 56.93326223-4.82190223l329.62446222-391.46609777c10.62456889-12.61568 9.72231111-31.2832-2.06848-42.8088889C795.47050667 278.02965333 775.85408 278.03761778 763.61272889 290.06165333z" p-id="1805"></path><path d="M513.99224889-2.72839111c-281.51011555 0-509.72444445 228.21774222-509.72444444 509.72103111 0 281.52718222 228.21432889 509.72899555 509.72444444 509.72899555 281.52263111 0 509.72444445-228.20181333 509.72444444-509.72899555C1023.71669333 225.48935111 795.51488-2.72839111 513.99224889-2.72839111zM513.99224889 953.00608c-246.3232 0-446.00888889-199.67317333-446.00888889-446.01344 0-246.31637333 199.68568889-446.00547555 446.00888889-446.00547555 246.32206222 0 446.00888889 199.68910222 446.00888889 446.00547555C960.00113778 753.33176889 760.31431111 953.00608 513.99224889 953.00608z" p-id="1806"></path></svg>