<?xml version="1.0" standalone="no"?><!DOCTYPE svg PUBLIC "-//W3C//DTD SVG 1.1//EN" "http://www.w3.org/Graphics/SVG/1.1/DTD/svg11.dtd"><svg t="1555944654951" class="icon" style="" viewBox="0 0 1024 1024" version="1.1" xmlns="http://www.w3.org/2000/svg" p-id="2159" xmlns:xlink="http://www.w3.org/1999/xlink" width="200" height="200"><defs><style type="text/css"></style></defs><path d="M897.53493333 990.29333333L128.6304 990.29333333c-51.56266667 0-92.9856-20.37013333-113.67253333-55.89866666-20.69226667-35.52853333-18.17493333-81.93706667 6.93226666-127.2864L409.84533333 106.42346667C435.09866667 60.74346667 472.65066667 34.56 512.82666667 34.56c40.18133333 0 77.696 26.15146667 103.01973333 71.79093333l388.36266667 700.8288c25.1008 45.3504 27.69706667 91.7248 6.9664 127.24906667C990.5216 969.95626667 949.06453333 990.29333333 897.53493333 990.29333333L897.53493333 990.29333333zM512.86613333 108.11306667c-12.7744 0-27.40586667 12.7616-39.2672 34.1312L85.64373333 843.00053333c-12.15573333 21.99253333-15.00053333 41.7472-7.73973333 54.20906667 7.2672 12.43093333 25.76533333 19.57013333 50.72746667 19.57013333l768.90453333 0c25.0016 0 43.46666667-7.09973333 50.72853333-19.57013333 7.2224-12.42986667 4.416-32.17706667-7.7728-54.17066667L552.1344 142.24426667C540.3072 120.87466667 525.60106667 108.11306667 512.86613333 108.11306667L512.86613333 108.11306667zM513.0848 658.4896c-20.14186667 0-36.49066667-16.4416-36.49066667-36.7776L476.59413333 290.71466667c0-20.30186667 16.3488-36.77866667 36.49066667-36.77866667 20.14506667 0 36.49386667 16.4768 36.49386667 36.77866667l0 330.99626666C549.5776 642.048 533.2288 658.4896 513.0848 658.4896zM512.8224 838.2624c31.40373333 0 56.86293333-25.7024 56.86293333-57.40693333s-25.45813333-57.40693333-56.86293333-57.40693334-56.86186667 25.7024-56.86186667 57.40693334S481.41866667 838.2624 512.8224 838.2624z" p-id="2160"></path></svg>